<?xml version="1.0" encoding="iso-8859-1"?>
<!-- Generator: Adobe Illustrator 19.0.0, SVG Export Plug-In . SVG Version: 6.00 Build 0)  -->
<svg version="1.1" id="Layer_1" xmlns="http://www.w3.org/2000/svg" xmlns:xlink="http://www.w3.org/1999/xlink" x="0px" y="0px"
	 viewBox="0 0 512 512" style="enable-background:new 0 0 512 512;" xml:space="preserve">
<polygon style="fill:#E83B36;" points="185.858,44.35 10.199,44.35 10.199,467.649 "/>
<path style="fill:#C1272D;" d="M10.203,477.849c-0.661,0-1.329-0.064-1.997-0.198C3.435,476.701,0,472.514,0,467.649V44.35
	c0-5.633,4.566-10.199,10.199-10.199h175.66c3.408,0,6.59,1.701,8.482,4.536c1.892,2.834,2.244,6.425,0.938,9.573L19.619,471.558
	C18.017,475.422,14.258,477.849,10.203,477.849z M20.398,54.549v361.912L170.584,54.549H20.398z"/>
<polygon style="fill:#E83B36;" points="259.054,382.25 294.426,467.649 367.612,467.649 254.174,205.375 177.323,382.25 "/>
<path style="fill:#C1272D;" d="M367.612,477.848h-73.186c-4.126,0-7.844-2.486-9.423-6.296l-32.764-79.103h-74.915
	c-3.437,0-6.644-1.732-8.529-4.606c-1.885-2.874-2.195-6.505-0.826-9.658l76.851-176.875c1.619-3.725,5.293-6.135,9.355-6.135
	c0.003,0,0.005,0,0.008,0c4.064,0.003,7.739,2.42,9.353,6.15L376.973,463.6c1.364,3.153,1.048,6.778-0.837,9.649
	C374.251,476.119,371.046,477.848,367.612,477.848z M301.241,457.45h50.848l-97.935-226.431l-61.278,141.033h66.179
	c4.126,0,7.844,2.486,9.423,6.296L301.241,457.45z"/>
<polygon style="fill:#E83B36;" points="318.818,44.35 501.801,467.649 501.801,44.35 "/>
<g>
	<path style="fill:#C1272D;" d="M501.797,477.849c-4,0-7.72-2.362-9.358-6.153L309.456,48.397c-1.363-3.152-1.047-6.778,0.838-9.647
		c1.886-2.87,5.089-4.598,8.523-4.598h182.983c5.633,0,10.199,4.566,10.199,10.199V467.65c0,4.836-3.397,9.008-8.133,9.987
		C503.175,477.78,502.481,477.849,501.797,477.849z M334.339,54.549l157.263,363.802V54.549H334.339z"/>
	<path style="fill:#C1272D;" d="M469.163,193.785c-5.633,0-10.199-4.566-10.199-10.199V79.554c0-5.633,4.566-10.199,10.199-10.199
		s10.199,4.566,10.199,10.199v104.032C479.363,189.218,474.796,193.785,469.163,193.785z"/>
	<path style="fill:#C1272D;" d="M469.163,234.582c-5.633,0-10.199-4.566-10.199-10.199v-7.139c0-5.633,4.566-10.199,10.199-10.199
		s10.199,4.566,10.199,10.199v7.139C479.363,230.014,474.796,234.582,469.163,234.582z"/>
</g>
<g>
</g>
<g>
</g>
<g>
</g>
<g>
</g>
<g>
</g>
<g>
</g>
<g>
</g>
<g>
</g>
<g>
</g>
<g>
</g>
<g>
</g>
<g>
</g>
<g>
</g>
<g>
</g>
<g>
</g>
</svg>
